<?xml version="1.0" encoding="UTF-8" standalone="no"?>
<!-- Created with Inkscape (http://www.inkscape.org/) -->

<svg
   width="245.13535mm"
   height="108.27889mm"
   viewBox="0 0 245.13534 108.27889"
   version="1.1"
   id="svg5"
   inkscape:version="1.2.1 (9c6d41e410, 2022-07-14)"
   sodipodi:docname="model_scheme.svg"
   xmlns:inkscape="http://www.inkscape.org/namespaces/inkscape"
   xmlns:sodipodi="http://sodipodi.sourceforge.net/DTD/sodipodi-0.dtd"
   xmlns:xlink="http://www.w3.org/1999/xlink"
   xmlns="http://www.w3.org/2000/svg"
   xmlns:svg="http://www.w3.org/2000/svg">
  <sodipodi:namedview
     id="namedview7"
     pagecolor="#ffffff"
     bordercolor="#000000"
     borderopacity="0.25"
     inkscape:showpageshadow="2"
     inkscape:pageopacity="0.0"
     inkscape:pagecheckerboard="0"
     inkscape:deskcolor="#d1d1d1"
     inkscape:document-units="mm"
     showgrid="false"
     inkscape:zoom="0.73851712"
     inkscape:cx="355.442"
     inkscape:cy="207.17191"
     inkscape:window-width="1920"
     inkscape:window-height="1009"
     inkscape:window-x="1912"
     inkscape:window-y="-8"
     inkscape:window-maximized="1"
     inkscape:current-layer="layer1" />
  <defs
     id="defs2">
    <linearGradient
       inkscape:collect="always"
       xlink:href="#fill13"
       id="linearGradient713"
       gradientUnits="userSpaceOnUse"
       x1="10.9554"
       y1="0"
       x2="10.9554"
       y2="38.0952"
       spreadMethod="reflect"
       gradientTransform="matrix(-0.142851,-0.989744,-0.989744,0.142851,327.028,306.062)" />
    <linearGradient
       x1="10.9554"
       y1="0"
       x2="10.9554"
       y2="38.0952"
       gradientUnits="userSpaceOnUse"
       spreadMethod="reflect"
       id="fill13">
      <stop
         offset="0"
         stop-color="#D2D2D2"
         id="stop168" />
      <stop
         offset="0.5"
         stop-color="#C8C8C8"
         id="stop170" />
      <stop
         offset="1"
         stop-color="#C0C0C0"
         id="stop172" />
    </linearGradient>
    <clipPath
       id="clip18">
      <rect
         x="18"
         y="16"
         width="10"
         height="17"
         id="rect187" />
    </clipPath>
    <filter
       id="fx2"
       x="-21"
       y="-29.700001"
       width="252.00002"
       height="356.40002"
       filterUnits="userSpaceOnUse"
       primitiveUnits="userSpaceOnUse">
      <feComponentTransfer
         color-interpolation-filters="sRGB"
         id="feComponentTransfer43">
        <feFuncR
           type="discrete"
           tableValues="0 0"
           id="feFuncR35" />
        <feFuncG
           type="discrete"
           tableValues="0 0"
           id="feFuncG37" />
        <feFuncB
           type="discrete"
           tableValues="0 0"
           id="feFuncB39" />
        <feFuncA
           type="linear"
           slope="0.4"
           intercept="0"
           id="feFuncA41" />
      </feComponentTransfer>
      <feGaussianBlur
         stdDeviation="0.572011 0.572011"
         id="feGaussianBlur45" />
    </filter>
    <clipPath
       id="clip19">
      <rect
         x="0"
         y="0"
         width="45"
         height="55"
         id="rect190" />
    </clipPath>
    <clipPath
       id="clip20">
      <rect
         x="18"
         y="16"
         width="15"
         height="17"
         id="rect193" />
    </clipPath>
    <filter
       id="fx3"
       x="-21"
       y="-29.700001"
       width="252.00002"
       height="356.40002"
       filterUnits="userSpaceOnUse"
       primitiveUnits="userSpaceOnUse">
      <feComponentTransfer
         color-interpolation-filters="sRGB"
         id="feComponentTransfer56">
        <feFuncR
           type="discrete"
           tableValues="0 0"
           id="feFuncR48" />
        <feFuncG
           type="discrete"
           tableValues="0 0"
           id="feFuncG50" />
        <feFuncB
           type="discrete"
           tableValues="0 0"
           id="feFuncB52" />
        <feFuncA
           type="linear"
           slope="0.4"
           intercept="0"
           id="feFuncA54" />
      </feComponentTransfer>
      <feGaussianBlur
         stdDeviation="0.572011 0.572011"
         id="feGaussianBlur58" />
    </filter>
    <clipPath
       id="clip21">
      <rect
         x="0"
         y="0"
         width="50"
         height="55"
         id="rect196" />
    </clipPath>
    <linearGradient
       inkscape:collect="always"
       xlink:href="#fill13"
       id="linearGradient715"
       gradientUnits="userSpaceOnUse"
       x1="10.9554"
       y1="0"
       x2="10.9554"
       y2="38.0952"
       spreadMethod="reflect"
       gradientTransform="matrix(-0.578576,0.815628,0.815628,0.578576,83.1129,154.162)" />
  </defs>
  <g
     inkscape:label="Layer 1"
     inkscape:groupmode="layer"
     id="layer1"
     transform="translate(2.9130317,-8.0274349)">
    <g
       id="g947"
       transform="matrix(0.22626238,0,0,0.22626238,167.91504,6.3109944)"
       inkscape:export-filename="model_scheme.png"
       inkscape:export-xdpi="96"
       inkscape:export-ydpi="96">
      <rect
         style="fill:#ffffff;fill-opacity:1;stroke:#000000;stroke-width:4.13978"
         id="rect13581"
         width="318.53281"
         height="415.72675"
         x="-11.93011"
         y="34.069889" />
      <g
         id="tissue"
         transform="matrix(1,0,0,-1,-72.424324,763.13937)">
        <g
           id="ECM" />
        <g
           id="cells"
           transform="translate(1.0070588)">
          <g
             id="cell1719"
             transform="translate(-656.27668,-59.910628)">
            <circle
               cx="736.88098"
               cy="762.41498"
               r="8.4127102"
               stroke-width="0.5"
               stroke="#000000"
               fill="#0000ff"
               fill-opacity="0.65"
               id="circle4659" />
          </g>
          <g
             id="cell9230"
             transform="translate(-572.27737,381.66742)">
            <circle
               cx="652.88202"
               cy="290.853"
               r="8.3966398"
               stroke-width="0.5"
               stroke="#000000"
               fill="#ffff00"
               fill-opacity="0.65"
               id="circle11169" />
          </g>
          <g
             id="cell9384"
             transform="translate(-197.02734,358.819)" />
          <g
             id="cell9628"
             transform="translate(-521.33834,92.630073)"
             style="fill:#bfff00;fill-opacity:1">
            <circle
               cx="601.94299"
               cy="367.78699"
               r="10.5"
               stroke-width="0.5"
               stroke="#000000"
               fill="#238b45"
               fill-opacity="0.8"
               id="circle12213"
               style="fill:#bfff00;fill-opacity:1" />
          </g>
          <g
             id="cell9106"
             transform="translate(-325.21334,10.95029)"
             style="fill:#ff1493;fill-opacity:1">
            <circle
               cx="405.81799"
               cy="512.46698"
               r="7.4997902"
               stroke-width="0.5"
               stroke="#000000"
               fill="#ff1493"
               fill-opacity="0.8"
               id="circle12306"
               style="fill:#ff1493;fill-opacity:1" />
          </g>
          <g
             id="cell6446"
             transform="translate(69.028249,-186.30636)"
             style="fill:#808080;fill-opacity:1">
            <circle
               cx="11.5764"
               cy="800.22302"
               r="7.0004001"
               stroke-width="0.5"
               stroke="#000000"
               fill="#bc8f8f"
               fill-opacity="0.8"
               id="circle12513"
               style="fill:#808080;fill-opacity:1" />
          </g>
          <g
             id="cell6565"
             transform="translate(-244.47533,21.047149)"
             style="fill:#238b45;fill-opacity:1">
            <circle
               cx="325.07999"
               cy="469.35501"
               r="10.5149"
               stroke-width="0.5"
               stroke="#000000"
               fill="#00ff00"
               fill-opacity="0.8"
               id="circle12528"
               style="fill:#238b45;fill-opacity:1" />
          </g>
          <g
             id="cell8623"
             transform="translate(-392.92535,-132.20324)"
             style="fill:#ffa500;fill-opacity:1">
            <circle
               cx="473.53"
               cy="477.55099"
               r="5.5693002"
               stroke-width="0.5"
               stroke="#000000"
               fill="#ff0000"
               fill-opacity="0.8"
               id="circle12672"
               style="fill:#ffa500;fill-opacity:1" />
          </g>
          <text
             xml:space="preserve"
             style="font-style:normal;font-weight:normal;font-size:18.6667px;line-height:1.25;font-family:sans-serif;letter-spacing:0px;word-spacing:0px;fill:#000000;fill-opacity:1;stroke:none"
             x="102.59106"
             y="-455.25363"
             id="text12712"
             transform="scale(1,-1)"><tspan
               sodipodi:role="line"
               id="tspan12710"
               x="102.59106"
               y="-455.25363"
               style="font-size:18.6667px">Activated macrophage</tspan></text>
          <text
             xml:space="preserve"
             style="font-style:normal;font-weight:normal;font-size:18.6667px;line-height:1.25;font-family:sans-serif;letter-spacing:0px;word-spacing:0px;fill:#000000;fill-opacity:1;stroke:none"
             x="103.60278"
             y="-485.23874"
             id="text12716"
             transform="scale(1,-1)"><tspan
               sodipodi:role="line"
               id="tspan12714"
               x="103.60278"
               y="-485.23874"
               style="font-size:18.6667px">Inactivated macrophage</tspan></text>
          <text
             xml:space="preserve"
             style="font-style:normal;font-weight:normal;font-size:18.6667px;line-height:1.25;font-family:sans-serif;letter-spacing:0px;word-spacing:0px;fill:#000000;fill-opacity:1;stroke:none"
             x="102.79156"
             y="-336.98474"
             id="text12724"
             transform="scale(1,-1)"><tspan
               sodipodi:role="line"
               id="tspan12722"
               x="102.79156"
               y="-336.98474"
               style="font-size:18.6667px">CD4 T cell</tspan></text>
          <text
             xml:space="preserve"
             style="font-style:normal;font-weight:normal;font-size:18.6667px;line-height:1.25;font-family:sans-serif;letter-spacing:0px;word-spacing:0px;fill:#000000;fill-opacity:1;stroke:none"
             x="102.59106"
             y="-516.98474"
             id="text12728"
             transform="scale(1,-1)"><tspan
               sodipodi:role="line"
               id="tspan12726"
               x="102.59106"
               y="-516.98474"
               style="font-size:18.6667px">Activated Denditric</tspan></text>
          <g
             id="g12732"
             transform="translate(-325.21334,40.95029)"
             style="fill:#810f7c;fill-opacity:1">
            <circle
               cx="405.81799"
               cy="512.46698"
               r="7.4997902"
               stroke-width="0.5"
               stroke="#000000"
               fill="#ff1493"
               fill-opacity="0.8"
               id="circle12730"
               style="fill:#810f7c;fill-opacity:1" />
          </g>
          <text
             xml:space="preserve"
             style="font-style:normal;font-weight:normal;font-size:18.6667px;line-height:1.25;font-family:sans-serif;letter-spacing:0px;word-spacing:0px;fill:#000000;fill-opacity:1;stroke:none"
             x="103.60278"
             y="-546.98474"
             id="text13559"
             transform="scale(1,-1)"><tspan
               sodipodi:role="line"
               id="tspan13557"
               x="103.60278"
               y="-546.98474"
               style="font-size:18.6667px">Inactivated Denditric</tspan></text>
          <text
             xml:space="preserve"
             style="font-style:normal;font-weight:normal;font-size:18.6667px;line-height:1.25;font-family:sans-serif;letter-spacing:0px;word-spacing:0px;fill:#000000;fill-opacity:1;stroke:none"
             x="102.01684"
             y="-606.98474"
             id="text13563"
             transform="scale(1,-1)"><tspan
               sodipodi:role="line"
               id="tspan13561"
               x="102.01684"
               y="-606.98474"
               style="font-size:18.6667px">Dead melanoma cell</tspan></text>
          <g
             id="g13567"
             transform="translate(69.028249,-156.30636)"
             style="fill:#000000">
            <circle
               cx="11.5764"
               cy="800.22302"
               r="7.0004001"
               stroke-width="0.5"
               stroke="#000000"
               fill="#bc8f8f"
               fill-opacity="0.8"
               id="circle13565"
               style="fill:#000000" />
          </g>
          <text
             xml:space="preserve"
             style="font-style:normal;font-weight:normal;font-size:18.6667px;line-height:1.25;font-family:sans-serif;letter-spacing:0px;word-spacing:0px;fill:#000000;fill-opacity:1;stroke:none"
             x="102.01684"
             y="-636.98474"
             id="text13571"
             transform="scale(1,-1)"><tspan
               sodipodi:role="line"
               id="tspan13569"
               x="102.01684"
               y="-636.98474"
               style="font-size:18.6667px">Dead lung cell</tspan></text>
          <text
             xml:space="preserve"
             style="font-style:normal;font-weight:normal;font-size:18.6667px;line-height:1.25;font-family:sans-serif;letter-spacing:0px;word-spacing:0px;fill:#000000;fill-opacity:1;stroke:none"
             x="102.01647"
             y="-696.98474"
             id="text13575"
             transform="scale(1,-1)"><tspan
               sodipodi:role="line"
               id="tspan13573"
               x="102.01647"
               y="-696.98474"
               style="font-size:18.6667px">Normal lung cell</tspan></text>
          <text
             xml:space="preserve"
             style="font-style:normal;font-weight:normal;font-size:18.6667px;line-height:1.25;font-family:sans-serif;letter-spacing:0px;word-spacing:0px;fill:#000000;fill-opacity:1;stroke:none"
             x="102.79156"
             y="-665.57056"
             id="text13579"
             transform="scale(1,-1)"><tspan
               sodipodi:role="line"
               id="tspan13577"
               x="102.79156"
               y="-665.57056"
               style="font-size:18.6667px">Melanoma cell</tspan></text>
          <g
             id="g49"
             transform="translate(-521.33834,62.630073)"
             style="fill:#74c476;fill-opacity:1">
            <circle
               cx="601.94299"
               cy="367.78699"
               r="10.5"
               stroke-width="0.5"
               stroke="#000000"
               fill="#238b45"
               fill-opacity="0.8"
               id="circle47"
               style="fill:#74c476;fill-opacity:1" />
          </g>
          <text
             xml:space="preserve"
             style="font-style:normal;font-weight:normal;font-size:18.6667px;line-height:1.25;font-family:sans-serif;letter-spacing:0px;word-spacing:0px;fill:#000000;fill-opacity:1;stroke:none"
             x="102.59106"
             y="-425.25363"
             id="text53"
             transform="scale(1,-1)"><tspan
               sodipodi:role="line"
               id="tspan51"
               x="102.59106"
               y="-425.25363"
               style="font-size:18.6667px">Exhausted macrophage</tspan></text>
          <g
             id="g57"
             transform="translate(-392.92535,-102.20324)">
            <circle
               cx="473.53"
               cy="477.55099"
               r="5.5693002"
               stroke-width="0.5"
               stroke="#000000"
               fill="#ff0000"
               fill-opacity="0.8"
               id="circle55" />
          </g>
          <text
             xml:space="preserve"
             style="font-style:normal;font-weight:normal;font-size:18.6667px;line-height:1.25;font-family:sans-serif;letter-spacing:0px;word-spacing:0px;fill:#000000;fill-opacity:1;stroke:none"
             x="102.79156"
             y="-366.98474"
             id="text61"
             transform="scale(1,-1)"><tspan
               sodipodi:role="line"
               id="tspan59"
               x="102.79156"
               y="-366.98474"
               style="font-size:18.6667px">CD8 T cell</tspan></text>
          <g
             id="g65"
             transform="translate(69.028249,-216.30636)"
             style="fill:#bc8f8f;fill-opacity:1">
            <circle
               cx="11.5764"
               cy="800.22302"
               r="7.0004001"
               stroke-width="0.5"
               stroke="#000000"
               fill="#bc8f8f"
               fill-opacity="0.8"
               id="circle63"
               style="fill:#bc8f8f;fill-opacity:1" />
          </g>
          <text
             xml:space="preserve"
             style="font-style:normal;font-weight:normal;font-size:18.6667px;line-height:1.25;font-family:sans-serif;letter-spacing:0px;word-spacing:0px;fill:#000000;fill-opacity:1;stroke:none"
             x="102.01684"
             y="-576.98474"
             id="text69"
             transform="scale(1,-1)"><tspan
               sodipodi:role="line"
               id="tspan67"
               x="102.01684"
               y="-576.98474"
               style="font-size:18.6667px">Dead immune cell</tspan></text>
          <g
             id="g896"
             transform="translate(-521.33834,32.630073)"
             style="fill:#a8ddb5;fill-opacity:1">
            <circle
               cx="601.94299"
               cy="367.78699"
               r="10.5"
               stroke-width="0.5"
               stroke="#000000"
               fill="#238b45"
               fill-opacity="0.8"
               id="circle894"
               style="fill:#a8ddb5;fill-opacity:1" />
          </g>
          <text
             xml:space="preserve"
             style="font-style:normal;font-weight:normal;font-size:18.6667px;line-height:1.25;font-family:sans-serif;letter-spacing:0px;word-spacing:0px;fill:#000000;fill-opacity:1;stroke:none"
             x="102.59106"
             y="-395.25363"
             id="text900"
             transform="scale(1,-1)"><tspan
               sodipodi:role="line"
               id="tspan898"
               x="102.59106"
               y="-395.25363"
               style="font-size:18.6667px">Hyperactivated macrophage</tspan></text>
        </g>
      </g>
    </g>
    <g
       id="g1219"
       transform="matrix(0.26458333,0,0,0.26458333,-4.9662626,-24.536103)">
      <path
         d="m 316.18496,307.62699 9.27805,-12.40803 -12.40805,-9.27815 0.7825,5.42152 -26.86145,3.87695 1.56499,10.8431 26.86146,-3.87695 z"
         stroke="#a5a5a5"
         stroke-width="0.666667"
         stroke-miterlimit="8"
         fill="url(#fill13)"
         fill-rule="evenodd"
         id="path256"
         style="fill:url(#linearGradient713)"
         inkscape:export-filename="Fig1.png"
         inkscape:export-xdpi="90"
         inkscape:export-ydpi="90" />
      <path
         d="m 334.5,288.5 5,-9 5,9 z"
         stroke="#ff0000"
         stroke-width="1.33333"
         stroke-miterlimit="8"
         fill="#ff0000"
         fill-rule="evenodd"
         id="path258"
         inkscape:export-filename="C:\Users\hlimadar\OneDrive - Indiana University\Melanoma project\ReportFigures\Scheme.png"
         inkscape:export-xdpi="90"
         inkscape:export-ydpi="90" />
      <path
         d="m 346.5,297.5 4.5,-9 4.5,9 z"
         stroke="#ff0000"
         stroke-width="1.33333"
         stroke-miterlimit="8"
         fill="#ff0000"
         fill-rule="evenodd"
         id="path260"
         inkscape:export-filename="C:\Users\hlimadar\OneDrive - Indiana University\Melanoma project\ReportFigures\Scheme.png"
         inkscape:export-xdpi="90"
         inkscape:export-ydpi="90" />
      <path
         d="m 329.5,305.5 5,-9 5,9 z"
         stroke="#ff0000"
         stroke-width="1.33333"
         stroke-miterlimit="8"
         fill="#ff0000"
         fill-rule="evenodd"
         id="path262"
         inkscape:export-filename="C:\Users\hlimadar\OneDrive - Indiana University\Melanoma project\ReportFigures\Scheme.png"
         inkscape:export-xdpi="90"
         inkscape:export-ydpi="90" />
      <path
         d="m 345.5,312.5 4.5,-9 4.5,9 z"
         stroke="#ff0000"
         stroke-width="1.33333"
         stroke-miterlimit="8"
         fill="#ff0000"
         fill-rule="evenodd"
         id="path264"
         inkscape:export-filename="C:\Users\hlimadar\OneDrive - Indiana University\Melanoma project\ReportFigures\Scheme.png"
         inkscape:export-xdpi="90"
         inkscape:export-ydpi="90" />
      <path
         d="m 358.5,288.5 4.5,-10 4.5,10 z"
         stroke="#ff0000"
         stroke-width="1.33333"
         stroke-miterlimit="8"
         fill="#ff0000"
         fill-rule="evenodd"
         id="path266"
         inkscape:export-filename="C:\Users\hlimadar\OneDrive - Indiana University\Melanoma project\ReportFigures\Scheme.png"
         inkscape:export-xdpi="90"
         inkscape:export-ydpi="90" />
      <path
         d="m 360.5,304.5 4.5,-9 4.5,9 z"
         stroke="#ff0000"
         stroke-width="1.33333"
         stroke-miterlimit="8"
         fill="#ff0000"
         fill-rule="evenodd"
         id="path268"
         inkscape:export-filename="C:\Users\hlimadar\OneDrive - Indiana University\Melanoma project\ReportFigures\Scheme.png"
         inkscape:export-xdpi="90"
         inkscape:export-ydpi="90" />
      <path
         d="m 24.5001,262.5 c 0,-18.778 14.9984,-34 33.5,-34 18.5015,0 33.5,15.222 33.5,34 0,18.778 -14.9985,34 -33.5,34 -18.5016,0 -33.5,-15.222 -33.5,-34 z"
         stroke="#000000"
         stroke-width="0.666667"
         stroke-miterlimit="8"
         fill="#ffff00"
         fill-rule="evenodd"
         id="path270"
         inkscape:export-filename="C:\Users\hlimadar\OneDrive - Indiana University\Melanoma project\ReportFigures\Scheme.png"
         inkscape:export-xdpi="90"
         inkscape:export-ydpi="90" />
      <text
         font-family="Calibri, Calibri_MSFontService, sans-serif"
         font-weight="400"
         font-size="24px"
         id="text272"
         inkscape:export-filename="C:\Users\hlimadar\OneDrive - Indiana University\Melanoma project\ReportFigures\Scheme.png"
         inkscape:export-xdpi="90"
         inkscape:export-ydpi="90"
         x="51.466896"
         y="270.08203"><tspan
           style="font-style:normal;font-variant:normal;font-weight:bold;font-stretch:normal;font-family:Calibri, Calibri_MSFontService, sans-serif;-inkscape-font-specification:'Calibri, Calibri_MSFontService, sans-serif Bold'"
           id="tspan8441">C</tspan></text>
      <path
         d="m 439.5,258 c 0,-16.845 13.655,-30.5 30.5,-30.5 16.845,0 30.5,13.655 30.5,30.5 0,16.845 -13.655,30.5 -30.5,30.5 -16.845,0 -30.5,-13.655 -30.5,-30.5 z"
         stroke="#000000"
         stroke-width="0.666667"
         stroke-miterlimit="8"
         fill="#ff33cc"
         fill-rule="evenodd"
         id="path274"
         inkscape:export-filename="C:\Users\hlimadar\OneDrive - Indiana University\Melanoma project\ReportFigures\Scheme.png"
         inkscape:export-xdpi="90"
         inkscape:export-ydpi="90" />
      <text
         fill="#ffffff"
         font-family="Calibri, Calibri_MSFontService, sans-serif"
         font-weight="400"
         font-size="16px"
         id="text282"
         inkscape:export-filename="C:\Users\hlimadar\OneDrive - Indiana University\Melanoma project\ReportFigures\Scheme.png"
         inkscape:export-xdpi="90"
         inkscape:export-ydpi="90"
         style="font-size:21.3333px"
         x="457.14584"
         y="264.73956"><tspan
           style="font-style:normal;font-variant:normal;font-weight:bold;font-stretch:normal;font-family:Calibri, Calibri_MSFontService, sans-serif;-inkscape-font-specification:'Calibri, Calibri_MSFontService, sans-serif Bold'"
           id="tspan16463">DC</tspan></text>
      <path
         d="m 262.5,480 c 0,-15.74 12.984,-28.5 29,-28.5 16.016,0 29,12.76 29,28.5 0,15.74 -12.984,28.5 -29,28.5 -16.016,0 -29,-12.76 -29,-28.5 z"
         stroke="#000000"
         stroke-width="0.666667"
         stroke-miterlimit="8"
         fill="#ff0000"
         fill-rule="evenodd"
         id="path284"
         inkscape:export-filename="C:\Users\hlimadar\OneDrive - Indiana University\Melanoma project\ReportFigures\Scheme.png"
         inkscape:export-xdpi="90"
         inkscape:export-ydpi="90" />
      <text
         fill="#ffffff"
         font-family="Calibri, Calibri_MSFontService, sans-serif"
         font-weight="400"
         font-size="11px"
         id="text292"
         inkscape:export-filename="C:\Users\hlimadar\OneDrive - Indiana University\Melanoma project\ReportFigures\Scheme.png"
         inkscape:export-xdpi="90"
         inkscape:export-ydpi="90"
         style="font-size:21.3333px"
         x="273.63544"
         y="486.73956"><tspan
           style="font-style:normal;font-variant:normal;font-weight:bold;font-stretch:normal;font-family:Calibri, Calibri_MSFontService, sans-serif;-inkscape-font-specification:'Calibri, Calibri_MSFontService, sans-serif Bold'"
           id="tspan7525">CD8</tspan></text>
      <path
         d="m 117.5,360 c 0,-16.845 13.655,-30.5 30.5,-30.5 16.845,0 30.5,13.655 30.5,30.5 0,16.845 -13.655,30.5 -30.5,30.5 -16.845,0 -30.5,-13.655 -30.5,-30.5 z"
         stroke="#000000"
         stroke-width="0.666667"
         stroke-miterlimit="8"
         fill="#0000ff"
         fill-rule="evenodd"
         id="path294"
         inkscape:export-filename="C:\Users\hlimadar\OneDrive - Indiana University\Melanoma project\ReportFigures\Scheme.png"
         inkscape:export-xdpi="90"
         inkscape:export-ydpi="90" />
      <g
         clip-path="url(#clip18)"
         filter="url(#fx2)"
         transform="translate(126,336)"
         id="g300"
         inkscape:export-filename="C:\Users\hlimadar\OneDrive - Indiana University\Melanoma project\ReportFigures\Scheme.png"
         inkscape:export-xdpi="90"
         inkscape:export-ydpi="90">
        <g
           clip-path="url(#clip19)"
           id="g298">
          <path
             d="m 9.87891,-0.878906 c 0,0.15625 -0.00782,0.287109 -0.02344,0.392578 C 9.83984,-0.380859 9.81445,-0.291016 9.7793,-0.216797 9.74414,-0.142578 9.70117,-0.0878906 9.65039,-0.0527344 9.59961,-0.0175781 9.53906,0 9.46875,0 H 2.76563 C 2.58594,0 2.41602,-0.0605469 2.25586,-0.181641 2.0957,-0.302734 2.01563,-0.515625 2.01563,-0.820313 V -14.8594 c 0,-0.0625 0.01562,-0.1172 0.04687,-0.164 0.03125,-0.0469 0.08594,-0.084 0.16406,-0.1114 0.07813,-0.0273 0.1836,-0.0507 0.31641,-0.0703 0.13281,-0.0195 0.29297,-0.0293 0.48047,-0.0293 0.19531,0 0.35742,0.0098 0.48633,0.0293 0.1289,0.0196 0.23242,0.043 0.31054,0.0703 0.07813,0.0274 0.13281,0.0645 0.16407,0.1114 0.03125,0.0468 0.04687,0.1015 0.04687,0.164 v 13.11331 h 5.4375 c 0.07031,0 0.13086,0.01757 0.18164,0.05273 0.05078,0.03516 0.09375,0.08594 0.12891,0.15234 0.03515,0.06641 0.06054,0.1543 0.07617,0.26368 0.01562,0.10937 0.02344,0.24218 0.02344,0.398434 z"
             fill="#ffffff"
             transform="translate(17.0313,32)"
             id="path296" />
        </g>
      </g>
      <text
         fill="#ffffff"
         font-family="Calibri, Calibri_MSFontService, sans-serif"
         font-weight="400"
         font-size="24px"
         id="text302"
         inkscape:export-filename="C:\Users\hlimadar\OneDrive - Indiana University\Melanoma project\ReportFigures\Scheme.png"
         inkscape:export-xdpi="90"
         inkscape:export-ydpi="90"
         x="142.33501"
         y="367"><tspan
           style="font-style:normal;font-variant:normal;font-weight:bold;font-stretch:normal;font-family:Calibri, Calibri_MSFontService, sans-serif;-inkscape-font-specification:'Calibri, Calibri_MSFontService, sans-serif Bold'"
           id="tspan9931">L</tspan></text>
      <path
         d="m 104.5,200 c 0,-16.845 13.655,-30.5 30.5,-30.5 16.845,0 30.5,13.655 30.5,30.5 0,16.845 -13.655,30.5 -30.5,30.5 -16.845,0 -30.5,-13.655 -30.5,-30.5 z"
         stroke="#000000"
         stroke-width="0.666667"
         stroke-miterlimit="8"
         fill-rule="evenodd"
         id="path304"
         inkscape:export-filename="C:\Users\hlimadar\OneDrive - Indiana University\Melanoma project\ReportFigures\Scheme.png"
         inkscape:export-xdpi="90"
         inkscape:export-ydpi="90" />
      <g
         clip-path="url(#clip20)"
         filter="url(#fx3)"
         transform="translate(110,176)"
         id="g310"
         inkscape:export-filename="C:\Users\hlimadar\OneDrive - Indiana University\Melanoma project\ReportFigures\Scheme.png"
         inkscape:export-xdpi="90"
         inkscape:export-ydpi="90">
        <g
           clip-path="url(#clip21)"
           id="g308">
          <path
             d="m 13.6758,-7.80469 c 0,1.3125 -0.168,2.45899 -0.5039,3.43946 -0.336,0.98046 -0.8262,1.79296 -1.4707,2.4375 -0.6446,0.64453 -1.4356,1.126949 -2.37307,1.447261 C 8.39063,-0.160156 7.27344,0 5.97656,0 H 2.76563 C 2.58594,0 2.41602,-0.0605469 2.25586,-0.181641 2.0957,-0.302734 2.01563,-0.515625 2.01563,-0.820313 V -14.3438 c 0,-0.3046 0.08007,-0.5175 0.24023,-0.6386 0.16016,-0.1211 0.33008,-0.1817 0.50977,-0.1817 h 3.43359 c 1.3125,0 2.42187,0.17 3.32812,0.5098 0.90626,0.3398 1.66606,0.8281 2.27926,1.4648 0.6133,0.6368 1.0782,1.4083 1.3946,2.3145 0.3164,0.90625 0.4746,1.92969 0.4746,3.07031 z m -2.1211,0.08203 c 0,-0.82031 -0.1016,-1.58398 -0.3047,-2.29104 -0.2031,-0.707 -0.5215,-1.3183 -0.9551,-1.834 -0.43357,-0.5156 -0.9824,-0.9179 -1.64646,-1.207 -0.66407,-0.289 -1.51953,-0.4336 -2.56641,-0.4336 H 4.03125 v 11.8008 h 2.07422 c 0.96875,0 1.78515,-0.12109 2.44922,-0.36328 0.66406,-0.24219 1.21875,-0.61328 1.66411,-1.11328 0.4453,-0.5 0.7792,-1.12696 1.0019,-1.88086 0.2227,-0.75391 0.334,-1.64649 0.334,-2.67774 z"
             fill="#ffffff"
             transform="translate(17.5252,32)"
             id="path306" />
        </g>
      </g>
      <text
         fill="#ffffff"
         font-family="Calibri, Calibri_MSFontService, sans-serif"
         font-weight="400"
         font-size="24px"
         id="text312"
         inkscape:export-filename="C:\Users\hlimadar\OneDrive - Indiana University\Melanoma project\ReportFigures\Scheme.png"
         inkscape:export-xdpi="90"
         inkscape:export-ydpi="90"
         x="126.829"
         y="207"><tspan
           style="font-style:normal;font-variant:normal;font-weight:bold;font-stretch:normal;font-family:Calibri, Calibri_MSFontService, sans-serif;-inkscape-font-specification:'Calibri, Calibri_MSFontService, sans-serif Bold'"
           id="tspan10903">D</tspan></text>
      <rect
         x="536.08069"
         y="220"
         width="86"
         height="252"
         fill="#a5a5a5"
         fill-opacity="0.501961"
         id="rect314"
         inkscape:export-filename="C:\Users\hlimadar\OneDrive - Indiana University\Melanoma project\ReportFigures\Scheme.png"
         inkscape:export-xdpi="90"
         inkscape:export-ydpi="90" />
      <text
         font-family="Calibri, Calibri_MSFontService, sans-serif"
         font-weight="400"
         font-size="15px"
         id="text322"
         inkscape:export-filename="C:\Users\hlimadar\OneDrive - Indiana University\Melanoma project\ReportFigures\Scheme.png"
         inkscape:export-xdpi="90"
         inkscape:export-ydpi="90"
         style="font-size:18.6667px"
         x="553.39117"
         y="239"><tspan
           style="font-style:normal;font-variant:normal;font-weight:bold;font-stretch:normal;font-family:Calibri, Calibri_MSFontService, sans-serif;-inkscape-font-specification:'Calibri, Calibri_MSFontService, sans-serif Bold'"
           id="tspan860">Lymph</tspan></text>
      <text
         font-family="Calibri, Calibri_MSFontService, sans-serif"
         font-weight="400"
         font-size="15px"
         id="text330"
         inkscape:export-filename="C:\Users\hlimadar\OneDrive - Indiana University\Melanoma project\ReportFigures\Scheme.png"
         inkscape:export-xdpi="90"
         inkscape:export-ydpi="90"
         style="font-size:18.6667px"
         x="557.93481"
         y="256"><tspan
           style="font-style:normal;font-variant:normal;font-weight:bold;font-stretch:normal;font-family:Calibri, Calibri_MSFontService, sans-serif;-inkscape-font-specification:'Calibri, Calibri_MSFontService, sans-serif Bold'"
           id="tspan3156">Node</tspan></text>
      <text
         font-family="Calibri, Calibri_MSFontService, sans-serif"
         font-weight="400"
         font-size="15px"
         id="text338"
         inkscape:export-filename="C:\Users\hlimadar\OneDrive - Indiana University\Melanoma project\ReportFigures\Scheme.png"
         inkscape:export-xdpi="90"
         inkscape:export-ydpi="90"
         style="font-size:18.6667px"
         x="540.32538"
         y="274"><tspan
           style="font-style:normal;font-variant:normal;font-weight:bold;font-stretch:normal;font-family:Calibri, Calibri_MSFontService, sans-serif;-inkscape-font-specification:'Calibri, Calibri_MSFontService, sans-serif Bold'"
           id="tspan2614">Submodel</tspan></text>
      <path
         d="m 547.5,322 c 0,-16.845 13.655,-30.5 30.5,-30.5 16.845,0 30.5,13.655 30.5,30.5 0,16.845 -13.655,30.5 -30.5,30.5 -16.845,0 -30.5,-13.655 -30.5,-30.5 z"
         stroke="#000000"
         stroke-width="0.666667"
         stroke-miterlimit="8"
         fill="#ff33cc"
         fill-rule="evenodd"
         id="path340"
         inkscape:export-filename="C:\Users\hlimadar\OneDrive - Indiana University\Melanoma project\ReportFigures\Scheme.png"
         inkscape:export-xdpi="90"
         inkscape:export-ydpi="90" />
      <text
         fill="#ffffff"
         font-family="Calibri, Calibri_MSFontService, sans-serif"
         font-weight="400"
         font-size="16px"
         id="text348"
         inkscape:export-filename="C:\Users\hlimadar\OneDrive - Indiana University\Melanoma project\ReportFigures\Scheme.png"
         inkscape:export-xdpi="90"
         inkscape:export-ydpi="90"
         style="font-size:21.3333px"
         x="565.14587"
         y="328.73956"><tspan
           style="font-style:normal;font-variant:normal;font-weight:bold;font-stretch:normal;font-family:Calibri, Calibri_MSFontService, sans-serif;-inkscape-font-specification:'Calibri, Calibri_MSFontService, sans-serif Bold'"
           id="tspan27217">DC</tspan></text>
      <path
         d="m 546.5,440 c 0,-15.74 12.984,-28.5 29,-28.5 16.016,0 29,12.76 29,28.5 0,15.74 -12.984,28.5 -29,28.5 -16.016,0 -29,-12.76 -29,-28.5 z"
         stroke="#000000"
         stroke-width="0.666667"
         stroke-miterlimit="8"
         fill="#ff0000"
         fill-rule="evenodd"
         id="path350"
         inkscape:export-filename="C:\Users\hlimadar\OneDrive - Indiana University\Melanoma project\ReportFigures\Scheme.png"
         inkscape:export-xdpi="90"
         inkscape:export-ydpi="90" />
      <text
         fill="#ffffff"
         font-family="Calibri, Calibri_MSFontService, sans-serif"
         font-weight="400"
         font-size="11px"
         id="text358"
         inkscape:export-filename="C:\Users\hlimadar\OneDrive - Indiana University\Melanoma project\ReportFigures\Scheme.png"
         inkscape:export-xdpi="90"
         inkscape:export-ydpi="90"
         style="font-size:21.3333px"
         x="557.63544"
         y="446.73956"><tspan
           style="font-style:normal;font-variant:normal;font-weight:bold;font-stretch:normal;font-size:21.3333px;font-family:Calibri, Calibri_MSFontService, sans-serif;-inkscape-font-specification:'Calibri, Calibri_MSFontService, sans-serif Bold'"
           id="tspan30275">CD8</tspan></text>
      <path
         d="m 57.8362,229.232 0.2562,-2.754 0.8465,-2.8 1.2915,-2.713 1.7325,-2.63 2.1111,-2.559 2.5583,-2.431 5.9496,-4.43 7.1497,-3.733 7.8944,-2.842 8.464,-1.895 2.0251,-0.147 0.0963,1.33 -1.9757,0.143 0.0974,-0.014 -8.375,1.875 0.0802,-0.024 -7.8125,2.813 0.0828,-0.036 -7.0625,3.687 0.0896,-0.056 -5.875,4.375 0.061,-0.051 -2.5,2.375 0.0551,-0.06 -2.0626,2.5 0.0426,-0.057 -1.6875,2.562 0.0451,-0.08 -1.25,2.625 0.0362,-0.093 -0.8125,2.687 0.0257,-0.131 -0.25,2.687 z m 38.7081,-32.162 8.2687,3.411 -7.6905,4.568 z"
         id="path360"
         inkscape:export-filename="C:\Users\hlimadar\OneDrive - Indiana University\Melanoma project\ReportFigures\Scheme.png"
         inkscape:export-xdpi="90"
         inkscape:export-ydpi="90" />
      <path
         d="m 262.87,480.938 -5.332,-0.14 0.035,-1.332 5.331,0.139 z m -9.331,-0.244 -0.252,-0.007 -5.102,-0.433 0.113,-1.329 5.083,0.432 -0.039,-0.002 0.232,0.006 z m -9.339,-0.779 -0.512,-0.043 -4.809,-0.66 0.181,-1.321 4.793,0.657 -0.035,-0.003 0.495,0.042 z m -9.284,-1.247 -0.823,-0.113 -4.458,-0.827 0.243,-1.311 4.443,0.824 -0.031,-0.005 0.807,0.111 z m -9.214,-1.669 -1.078,-0.2 -4.154,-0.991 0.309,-1.296 4.138,0.986 -0.034,-0.007 1.062,0.197 z m -9.123,-2.118 -1.425,-0.34 -3.746,-1.088 0.372,-1.281 3.73,1.084 -0.031,-0.008 1.409,0.336 z m -9.012,-2.544 -1.695,-0.493 -3.404,-1.181 0.437,-1.259 3.388,1.175 -0.033,-0.01 1.679,0.487 z m -8.878,-2.985 -2.033,-0.705 -2.986,-1.174 0.488,-1.241 2.973,1.169 -0.026,-0.009 2.021,0.701 z m -8.741,-3.342 -2.38,-0.936 -2.565,-1.13 0.537,-1.22 2.553,1.125 -0.025,-0.011 2.367,0.931 z m -8.606,-3.679 -2.739,-1.206 -2.122,-1.061 0.596,-1.193 2.108,1.054 -0.029,-0.014 2.724,1.2 z m -8.439,-4.056 -3.083,-1.542 -1.667,-0.969 0.67,-1.153 1.649,0.959 -0.037,-0.02 3.064,1.532 z m -8.208,-4.522 -4.61,-2.681 0.67,-1.152 4.61,2.681 z m -8.068,-4.691 -3.723,-2.165 -0.888,-0.617 0.762,-1.095 0.865,0.602 -0.046,-0.029 3.7,2.151 z m -7.895,-5.066 -4.379,-3.044 0.762,-1.095 4.378,3.045 z m -7.663,-5.328 -4.211,-2.928 -0.201,-0.166 0.851,-1.027 0.179,0.149 -0.044,-0.034 4.187,2.911 z m -7.492,-5.646 -4.107,-3.402 0.851,-1.027 4.107,3.402 z m -7.187,-5.954 -4.107,-3.403 0.851,-1.027 4.107,3.403 z m -7.036,-6.205 -3.814,-3.727 0.932,-0.954 3.814,3.728 z m -6.675,-6.523 -3.814,-3.728 0.932,-0.953 3.814,3.727 z m -6.53,-6.739 -3.479,-4.042 1.01,-0.87 3.48,4.042 z m -6.089,-7.073 -3.4794,-4.042 1.0105,-0.87 3.4799,4.042 z m -5.9877,-7.208 -3.2227,-4.25 1.0624,-0.806 3.2226,4.25 z m -5.5492,-7.546 -2.9912,-4.415 1.1039,-0.748 2.9912,4.415 z m -5.1581,-7.811 -2.7972,-4.541 1.1352,-0.699 2.7972,4.541 z m -4.8044,-8.035 -2.587,-4.664 1.166,-0.647 2.587,4.664 z m -4.3964,-8.273 -2.3115,-4.806 1.2016,-0.578 2.3115,4.806 z m -3.9241,-8.5 -2.0829,-4.91 1.2274,-0.521 2.083,4.91 z m -3.4798,-8.697 -1.8105,-5.016 1.2541,-0.453 1.8105,5.017 z m -2.9767,-8.88 -1.4166,-4.699 -0.1047,-0.459 1.3,-0.297 0.0996,0.438 -0.0117,-0.045 1.41,4.677 z m -2.4103,-9.058 -0.9531,-4.182 -0.1794,-1.068 1.315,-0.221 0.1761,1.05 -0.0075,-0.038 0.9489,4.163 z m -1.7947,-9.195 -0.6027,-3.589 -0.1765,-1.728 1.3264,-0.135 0.1744,1.706 -0.0058,-0.043 0.5991,3.569 z m -1.1859,-9.296 -0.2962,-2.899 -0.0719,-1.985 1.3325,-0.048 0.0711,1.963 -0.003,-0.044 0.294,2.877 z m -3.651,-3.431 3.7077,-8.139 4.2871,7.85 z"
         id="path362"
         inkscape:export-filename="C:\Users\hlimadar\OneDrive - Indiana University\Melanoma project\ReportFigures\Scheme.png"
         inkscape:export-xdpi="90"
         inkscape:export-ydpi="90" />
      <path
         d="m 469.83953,288.59065 0.4494,3.27426 0.85328,2.03161 1.22931,-0.51631 -0.81937,-1.95087 0.0458,0.16751 -0.4375,-3.1875 z m 3.35594,8.86465 0.59187,0.89677 2.87856,3.07043 0.18631,0.1564 0.85716,-1.0213 -0.15579,-0.1307 0.0578,0.0546 -2.8125,-2.99996 0.0701,0.0887 -0.56063,-0.84943 z m 6.72063,6.6951 0.304,0.2551 4.114,2.8482 0.0506,0.0283 0.6515,-1.1633 -0.023,-0.0129 0.0538,0.0336 -4.0625,-2.8125 0.0491,0.0375 -0.2803,-0.2353 z m 7.9586,5.086 1.1924,0.6678 3.6103,1.7399 0.5789,-1.2012 -3.5919,-1.731 0.0363,0.0189 -1.1745,-0.6577 z m 8.5095,4.0228 3.571,1.4284 1.4376,0.4942 0.4335,-1.2609 -1.4221,-0.4889 0.0309,0.0115 -3.5557,-1.4223 z m 8.7914,3.2229 0.8213,0.2823 4.3814,1.1111 0.3277,-1.2924 -4.3546,-1.1043 0.0528,0.0157 -0.7952,-0.2733 z m 9.0799,2.3766 4.8604,1.2326 0.3758,0.0592 0.2077,-1.3171 -0.3456,-0.0544 0.0601,0.0123 -4.8306,-1.225 z m 9.1874,1.9147 5.2683,0.8306 0.2076,-1.317 -5.2682,-0.8306 z m 9.2195,1.4536 0.3872,0.061 4.9867,0.3499 0.0933,-1.3301 -4.958,-0.3478 0.0572,0.007 -0.3588,-0.0566 z m 6.7161,3.8953 8.1215,-3.7473 -7.8707,-4.2488 z"
         id="path364"
         inkscape:export-filename="C:\Users\hlimadar\OneDrive - Indiana University\Melanoma project\ReportFigures\Scheme.png"
         inkscape:export-xdpi="90"
         inkscape:export-ydpi="90" />
      <path
         d="m 345.40515,275.06539 -0.9735,-2.93345 -0.95006,-1.62734 -0.62967,0.89898 0.91229,1.56267 -0.0636,-0.14242 0.94771,2.85572 z m -3.92425,-7.22391 -0.54901,-0.64608 -2.39299,-1.92609 -0.1458,-0.0848 -0.29712,1.24976 0.1219,0.0708 -0.0465,-0.032 2.33808,1.88188 -0.0613,-0.06 0.52003,0.61197 z m -5.48535,-4.05085 -0.23787,-0.13826 -3.08949,-1.30207 -0.0366,-0.01 -0.14275,1.3145 0.0166,0.004 -0.0396,-0.0136 3.05081,1.28573 -0.0376,-0.0188 0.21935,0.12756 z m -5.88569,-2.11958 -0.8616,-0.22882 -2.54819,-0.42713 -0.0909,1.32582 2.53519,0.42493 -0.0259,-0.006 0.84865,0.22531 z m -5.98932,-0.93314 -2.45765,-0.1469 -0.97205,0.017 0.01,1.33325 0.96157,-0.0168 -0.0211,-4.6e-4 2.44713,0.14629 z m -5.98744,-0.085 -0.55532,0.01 -2.87771,0.42401 0.08,1.32742 2.86012,-0.42142 -0.0352,0.003 0.53766,-0.009 z m -5.97957,0.80901 -3.19233,0.47034 -0.23907,0.0704 0.15759,1.31041 0.21985,-0.0648 -0.0388,0.009 3.17274,-0.46749 z m -5.94519,1.2802 -3.35174,0.98593 0.15763,1.31027 3.35168,-0.98589 z m -5.86554,1.72532 -0.24633,0.0725 -3.07894,1.34422 0.22929,1.28425 3.0612,-1.33657 -0.0359,0.0126 0.22828,-0.0671 z m -4.88167,-1.415 -4.08782,6.25593 5.65304,1.36045 z"
         id="path364-6"
         inkscape:export-filename="C:\Users\hlimadar\OneDrive - Indiana University\Melanoma project\ReportFigures\Scheme.png"
         inkscape:export-xdpi="90"
         inkscape:export-ydpi="90"
         style="stroke-width:0.799668" />
      <path
         d="m 239.5,295 c 0,-16.845 13.655,-30.5 30.5,-30.5 16.845,0 30.5,13.655 30.5,30.5 0,16.845 -13.655,30.5 -30.5,30.5 -16.845,0 -30.5,-13.655 -30.5,-30.5 z"
         stroke="#000000"
         stroke-width="0.666667"
         stroke-miterlimit="8"
         fill="#92d050"
         fill-rule="evenodd"
         id="path366"
         inkscape:export-filename="C:\Users\hlimadar\OneDrive - Indiana University\Melanoma project\ReportFigures\Scheme.png"
         inkscape:export-xdpi="90"
         inkscape:export-ydpi="90" />
      <text
         fill="#ffffff"
         font-family="Calibri, Calibri_MSFontService, sans-serif"
         font-weight="400"
         font-size="16px"
         id="text374"
         inkscape:export-filename="C:\Users\hlimadar\OneDrive - Indiana University\Melanoma project\ReportFigures\Scheme.png"
         inkscape:export-xdpi="90"
         inkscape:export-ydpi="90"
         style="font-size:24px"
         x="252.66797"
         y="302.54688"><tspan
           style="font-style:normal;font-variant:normal;font-weight:bold;font-stretch:normal;font-family:Calibri, Calibri_MSFontService, sans-serif;-inkscape-font-specification:'Calibri, Calibri_MSFontService, sans-serif Bold'"
           id="tspan12771">MP</tspan></text>
      <path
         d="m 148.33961,329.51299 -0.12516,-9.2618 -0.43862,-8.96029 -0.68911,-8.3946 -0.81514,-7.5244 -1.00533,-6.409 -0.56875,-2.6541 -0.57228,-2.2892 -0.64239,-1.8629 -0.60517,-1.4121 -0.76959,-1.0004 -0.76193,-0.381 -0.625,-0.3125 0.23028,0.1898 -0.625,-0.8125 0.0843,0.1439 -0.5625,-1.3125 0.0175,0.0453 -0.625,-1.8125 0.0165,0.0556 -0.5625,-2.25 0.005,0.022 -0.5625,-2.625 0.008,0.0427 -0.93747,-6.375 0.002,0.0191 -0.875,-7.4375 0.003,0.0283 -0.625,-8.375 0.001,0.017 -0.4375,-8.9375 7e-4,0.0236 -0.0349,-2.5839 -1.3332,0.018 0.0351,2.5957 0.4384,8.9578 0.6267,8.3977 0.8778,7.4612 0.9421,6.406 0.5694,2.6572 0.57228,2.2892 0.64239,1.8629 0.60517,1.4121 0.76959,1.0004 0.76193,0.381 0.625,0.3125 -0.23028,-0.1898 0.625,0.8125 -0.0843,-0.1439 0.5625,1.3125 -0.0175,-0.0453 0.625,1.8125 -0.0165,-0.0556 0.5625,2.25 -0.005,-0.022 0.5625,2.625 -0.007,-0.0364 1,6.375 -0.004,-0.0315 0.8125,7.5 -0.002,-0.0173 0.6875,8.375 -0.001,-0.0219 0.4375,8.9375 -7.4e-4,-0.0236 0.125,9.25 z m -9.74638,-91.10829 -4.10773,-7.9452 -3.8915,8.0533 z"
         id="path376"
         inkscape:export-filename="C:\Users\hlimadar\OneDrive - Indiana University\Melanoma project\ReportFigures\Scheme.png"
         inkscape:export-xdpi="90"
         inkscape:export-ydpi="90" />
      <path
         d="m 578.483,473.012 -0.485,0.405 -0.953,0.264 -0.357,-1.285 0.815,-0.226 -0.249,0.13 0.375,-0.312 z m -2.81,0.942 -0.823,0.142 -0.507,0.076 -0.198,-1.319 0.5,-0.075 -0.015,0.003 0.816,-0.141 z m -2.649,0.416 -0.698,0.104 -0.657,0.066 -0.132,-1.327 0.64,-0.064 -0.032,0.004 0.682,-0.102 z m -2.681,0.303 -1.164,0.116 -0.175,0.014 -0.109,-1.329 0.169,-0.013 -0.012,10e-4 1.158,-0.116 z m -2.668,0.239 -1.329,0.109 -0.109,-1.329 1.329,-0.109 z m -2.665,0.215 -1.33,0.095 -0.095,-1.33 1.33,-0.095 z m -2.66,0.19 -1.33,0.095 -0.095,-1.33 1.33,-0.095 z m -2.676,0.163 -1.331,0.067 -0.067,-1.332 1.332,-0.066 z m -2.663,0.134 -1.047,0.052 h 0.004 l -0.285,0.016 -0.074,-1.332 0.287,-0.016 1.048,-0.052 z m -2.659,0.142 -1.331,0.075 -0.075,-1.331 1.331,-0.075 z m -2.662,0.15 -1.286,0.072 -0.049,0.003 -0.068,-1.332 0.047,-0.002 h -0.003 l 1.284,-0.072 z m -2.667,0.143 -1.331,0.068 -0.068,-1.332 1.331,-0.068 z m -2.663,0.136 -1.331,0.068 -0.068,-1.332 1.331,-0.068 z m -2.672,0.128 -1.333,0.05 -0.05,-1.332 1.333,-0.05 z m -2.665,0.101 -1.332,0.05 -0.051,-1.332 1.333,-0.051 z m -2.665,0.1 -0.714,0.027 h 0.004 l -0.618,0.027 -0.058,-1.332 0.619,-0.027 0.717,-0.027 z m -2.66,0.113 -1.332,0.058 -0.058,-1.332 1.332,-0.058 z m -2.664,0.116 -1.332,0.059 -0.059,-1.332 1.333,-0.059 z m -2.671,0.116 -1.333,0.044 -0.044,-1.333 1.333,-0.044 z m -2.666,0.088 -1.332,0.044 -0.044,-1.333 1.332,-0.044 z m -2.665,0.088 -1.332,0.044 -0.044,-1.332 1.332,-0.044 z m -2.661,0.091 -1.332,0.052 -0.052,-1.332 1.332,-0.052 z m -2.665,0.104 -1.332,0.051 -0.052,-1.332 1.333,-0.052 z m -2.664,0.103 -1.333,0.052 -0.051,-1.333 1.332,-0.051 z m -2.671,0.099 -1.333,0.039 -0.04,-1.332 1.333,-0.04 z m -2.666,0.079 -1.333,0.039 -0.039,-1.333 1.333,-0.039 z m -2.665,0.079 -1.333,0.039 -0.04,-1.333 1.333,-0.039 z m -2.667,0.079 -1.333,0.037 -0.037,-1.333 1.333,-0.037 z m -2.665,0.075 -1.333,0.037 -0.038,-1.333 1.333,-0.037 z m -2.666,0.075 -1.333,0.037 -0.037,-1.332 1.332,-0.038 z m -2.666,0.075 -0.804,0.023 -0.534,0.01 -0.027,-1.333 0.531,-0.01 h -0.005 l 0.802,-0.023 z m -2.671,0.06 -1.333,0.027 -0.027,-1.333 1.333,-0.027 z m -2.666,0.054 -1.333,0.027 -0.027,-1.333 1.333,-0.027 z m -2.666,0.054 -1.333,0.027 -0.027,-1.333 1.333,-0.027 z m -2.662,0.058 -1.333,0.035 -0.035,-1.333 1.333,-0.035 z m -2.666,0.07 -1.333,0.035 -0.035,-1.333 1.333,-0.035 z m -2.666,0.069 -1.333,0.035 -0.034,-1.333 1.332,-0.034 z m -2.665,0.07 -0.955,0.025 -0.381,0.008 -0.029,-1.333 0.38,-0.008 h -0.003 l 0.953,-0.025 z m -2.669,0.062 -1.333,0.029 -0.029,-1.333 1.333,-0.029 z m -2.666,0.058 -1.333,0.029 -0.029,-1.333 1.333,-0.029 z m -2.667,0.058 -1.333,0.029 -0.028,-1.333 1.333,-0.029 z m -2.666,0.058 -1.333,0.028 -0.028,-1.333 1.333,-0.028 z m -2.666,0.057 -1.333,0.029 -0.028,-1.333 1.333,-0.029 z m -2.666,0.058 -1.333,0.029 -0.029,-1.333 1.333,-0.029 z m -2.666,0.058 -1.333,0.029 -0.029,-1.333 1.333,-0.029 z m -2.67,0.056 -1.334,0.02 -0.019,-1.333 1.333,-0.02 z m -2.667,0.04 -1.333,0.019 -0.02,-1.333 1.334,-0.02 z m -2.666,0.039 -1.333,0.019 -0.02,-1.333 1.333,-0.019 z m -2.667,0.039 -1.333,0.02 -0.019,-1.334 1.333,-0.019 z m -2.666,0.039 -1.333,0.02 -0.02,-1.333 1.334,-0.02 z m -2.666,0.039 -1.333,0.02 -0.02,-1.333 1.333,-0.02 z m -2.667,0.04 -1.333,0.019 -0.019,-1.333 1.333,-0.019 z m -2.666,0.039 -1.333,0.02 -0.02,-1.334 1.333,-0.019 z m -2.667,0.039 -1.333,0.019 -0.019,-1.334 1.333,-0.018 z m -2.666,0.037 -1.333,0.019 -0.019,-1.333 1.333,-0.019 z m -2.667,0.038 -1.333,0.019 -0.019,-1.334 1.334,-0.018 z m -2.666,0.037 -1.333,0.019 -0.019,-1.333 1.333,-0.019 z m -2.666,0.038 -1.334,0.018 -0.018,-1.333 1.333,-0.018 z m -2.667,0.037 -1.333,0.019 -0.019,-1.333 1.333,-0.019 z m -2.666,0.038 -1.333,0.018 -0.019,-1.333 1.333,-0.019 z m -2.667,0.037 -1.333,0.019 -0.019,-1.333 1.334,-0.019 z m -2.666,0.038 -0.651,0.009 -0.684,0.007 -0.015,-1.333 0.684,-0.008 h -0.002 l 0.649,-0.009 z m -2.669,0.031 -1.333,0.014 -0.014,-1.333 1.333,-0.015 z m -2.666,0.029 -1.333,0.014 -0.015,-1.333 1.333,-0.015 z m -2.667,0.029 -1.333,0.014 -0.014,-1.333 1.333,-0.015 z m -2.666,0.029 -1.333,0.014 -0.015,-1.333 1.333,-0.015 z m -2.667,0.029 -1.333,0.014 -0.014,-1.333 1.333,-0.015 z m -2.666,0.029 -1.333,0.014 -0.015,-1.333 1.333,-0.015 z m -2.667,0.029 -1.333,0.014 -0.014,-1.333 1.333,-0.015 z m -2.666,0.029 -1.333,0.014 -0.015,-1.333 1.333,-0.015 z m -2.669,0.027 -1.333,0.011 -0.011,-1.333 1.334,-0.011 z m -2.666,0.022 -1.334,0.01 -0.01,-1.333 1.333,-0.011 z m -2.667,0.021 -1.333,0.011 -0.011,-1.334 1.334,-0.01 z m -2.666,0.021 -1.334,0.011 -0.01,-1.333 1.333,-0.011 z m -2.667,0.022 -1.333,0.01 -0.011,-1.333 1.333,-0.011 z m -2.667,0.021 -1.333,0.01 -0.011,-1.333 1.334,-0.01 z m -2.666,0.021 -1.333,0.011 -0.011,-1.334 1.333,-0.01 z m -2.667,0.021 -1.333,0.011 -0.011,-1.333 1.334,-0.011 z m -2.666,0.022 -1.334,0.01 -0.01,-1.333 1.333,-0.011 z m -2.669,0.019 -1.333,0.007 -0.007,-1.334 1.333,-0.007 z m -2.666,0.014 -1.334,0.007 -0.007,-1.334 1.334,-0.007 z m -2.667,0.014 -1.333,0.006 -0.007,-1.333 1.333,-0.007 z m -2.667,0.013 -1.333,0.007 -0.007,-1.333 1.333,-0.007 z m -2.666,0.014 -1.334,0.007 -0.007,-1.333 1.334,-0.007 z m -2.667,0.014 -1.333,0.007 -0.007,-1.333 1.333,-0.007 z m -2.667,0.014 -1.333,0.007 -0.007,-1.333 1.334,-0.007 z m -2.666,0.014 -1.333,0.007 -0.007,-1.333 1.333,-0.007 z m -2.667,0.014 -1.333,0.007 -0.007,-1.333 1.333,-0.007 z m -2.668,0.012 -1.334,0.003 -0.003,-1.333 1.333,-0.004 z m -2.667,0.006 -1.333,0.004 -0.004,-1.333 1.334,-0.004 z m -2.667,0.007 -1.333,0.004 -0.003,-1.333 1.333,-0.004 z m -2.666,0.007 -1.334,0.004 -0.003,-1.334 1.333,-0.003 z m -2.667,0.007 -1.333,0.004 -0.004,-1.334 1.334,-0.003 z m -2.667,0.007 -1.333,0.004 -0.003,-1.334 1.333,-0.003 z m -2.666,0.007 -0.548,10e-4 -0.004,-1.333 0.548,-10e-4 z m 0.794,3.331 -8.011,-3.979 7.99,-4.021 z"
         id="path378"
         inkscape:export-filename="C:\Users\hlimadar\OneDrive - Indiana University\Melanoma project\ReportFigures\Scheme.png"
         inkscape:export-xdpi="90"
         inkscape:export-ydpi="90" />
      <text
         font-family="Calibri, Calibri_MSFontService, sans-serif"
         font-weight="400"
         font-size="12px"
         transform="rotate(18.683608)"
         id="text380"
         inkscape:export-filename="C:\Users\hlimadar\OneDrive - Indiana University\Melanoma project\ReportFigures\Scheme.png"
         inkscape:export-xdpi="90"
         inkscape:export-ydpi="90"
         style="font-size:14.6667px"
         x="544.56744"
         y="150.48236">migration</text>
      <text
         font-family="Calibri, Calibri_MSFontService, sans-serif"
         font-weight="400"
         font-size="12px"
         id="text382"
         inkscape:export-filename="C:\Users\hlimadar\OneDrive - Indiana University\Melanoma project\ReportFigures\Scheme.png"
         inkscape:export-xdpi="90"
         inkscape:export-ydpi="90"
         style="font-size:14.6667px"
         x="417.79401"
         y="494">recruitment</text>
      <text
         font-family="Calibri, Calibri_MSFontService, sans-serif"
         font-weight="400"
         font-size="12px"
         transform="rotate(29.143077)"
         id="text384"
         inkscape:export-filename="C:\Users\hlimadar\OneDrive - Indiana University\Melanoma project\ReportFigures\Scheme.png"
         inkscape:export-xdpi="90"
         inkscape:export-ydpi="90"
         style="font-size:14.6667px"
         x="348.17514"
         y="307.34995">killing</text>
      <text
         font-family="Calibri, Calibri_MSFontService, sans-serif"
         font-weight="400"
         font-size="12px"
         transform="rotate(41.515085)"
         id="text386"
         inkscape:export-filename="C:\Users\hlimadar\OneDrive - Indiana University\Melanoma project\ReportFigures\Scheme.png"
         inkscape:export-xdpi="90"
         inkscape:export-ydpi="90"
         style="font-size:14.6667px"
         x="279.23187"
         y="54.649197">phagocytosis</text>
      <path
         d="m 238.908,295.161 -3.998,-3.53 0.883,-0.999 3.997,3.53 z m -6.996,-6.178 -3.998,-3.53 0.883,-0.999 3.997,3.53 z m -6.996,-6.177 -3.998,-3.531 0.883,-0.999 3.997,3.53 z m -6.996,-6.178 -3.998,-3.531 0.883,-0.999 3.997,3.53 z m -6.996,-6.178 -3.998,-3.531 0.883,-0.999 3.997,3.53 z m -6.996,-6.178 -3.998,-3.531 0.883,-0.999 3.998,3.53 z m -6.996,-6.178 -3.998,-3.531 0.883,-0.999 3.998,3.53 z m -6.996,-6.178 -3.998,-3.531 0.883,-0.999 3.998,3.53 z m -6.996,-6.178 -3.998,-3.53 0.883,-1 3.998,3.53 z m -6.996,-6.178 -3.998,-3.53 0.883,-1 3.998,3.53 z m -6.996,-6.178 -3.998,-3.53 0.883,-1 3.998,3.53 z m -6.996,-6.178 -0.896,-0.791 0.882,-1 0.897,0.791 z m -2.103,2.59 -3.349,-8.294 8.644,2.297 z"
         id="path388"
         inkscape:export-filename="C:\Users\hlimadar\OneDrive - Indiana University\Melanoma project\ReportFigures\Scheme.png"
         inkscape:export-xdpi="90"
         inkscape:export-ydpi="90" />
      <path
         d="m 35.5001,149.5 5,-9 5,9 z"
         stroke="#3d4c5f"
         stroke-width="1.33333"
         stroke-miterlimit="8"
         fill="#3d4c5f"
         fill-rule="evenodd"
         id="path390"
         inkscape:export-filename="C:\Users\hlimadar\OneDrive - Indiana University\Melanoma project\ReportFigures\Scheme.png"
         inkscape:export-xdpi="90"
         inkscape:export-ydpi="90" />
      <path
         d="m 46.5001,158.5 5,-9 5,9 z"
         stroke="#3d4c5f"
         stroke-width="1.33333"
         stroke-miterlimit="8"
         fill="#3d4c5f"
         fill-rule="evenodd"
         id="path392"
         inkscape:export-filename="C:\Users\hlimadar\OneDrive - Indiana University\Melanoma project\ReportFigures\Scheme.png"
         inkscape:export-xdpi="90"
         inkscape:export-ydpi="90" />
      <path
         d="m 30.5001,165.5 5,-9 5,9 z"
         stroke="#3d4c5f"
         stroke-width="1.33333"
         stroke-miterlimit="8"
         fill="#3d4c5f"
         fill-rule="evenodd"
         id="path394"
         inkscape:export-filename="C:\Users\hlimadar\OneDrive - Indiana University\Melanoma project\ReportFigures\Scheme.png"
         inkscape:export-xdpi="90"
         inkscape:export-ydpi="90" />
      <path
         d="m 46.5001,172.5 4.5,-9 4.5,9 z"
         stroke="#3d4c5f"
         stroke-width="1.33333"
         stroke-miterlimit="8"
         fill="#3d4c5f"
         fill-rule="evenodd"
         id="path396"
         inkscape:export-filename="C:\Users\hlimadar\OneDrive - Indiana University\Melanoma project\ReportFigures\Scheme.png"
         inkscape:export-xdpi="90"
         inkscape:export-ydpi="90" />
      <path
         d="m 58.5001,148.5 5,-9 5,9 z"
         stroke="#3d4c5f"
         stroke-width="1.33333"
         stroke-miterlimit="8"
         fill="#3d4c5f"
         fill-rule="evenodd"
         id="path398"
         inkscape:export-filename="C:\Users\hlimadar\OneDrive - Indiana University\Melanoma project\ReportFigures\Scheme.png"
         inkscape:export-xdpi="90"
         inkscape:export-ydpi="90" />
      <path
         d="m 60.5001,165.5 5,-10 5,10 z"
         stroke="#3d4c5f"
         stroke-width="1.33333"
         stroke-miterlimit="8"
         fill="#3d4c5f"
         fill-rule="evenodd"
         id="path400"
         inkscape:export-filename="C:\Users\hlimadar\OneDrive - Indiana University\Melanoma project\ReportFigures\Scheme.png"
         inkscape:export-xdpi="90"
         inkscape:export-ydpi="90" />
      <path
         d="m 92.048431,160.50053 -15.274063,2.597 2.596942,15.27415 3.169266,-4.46777 22.135984,15.70244 6.33856,-8.93558 -22.135978,-15.70244 z"
         stroke="#a5a5a5"
         stroke-width="0.666667"
         stroke-miterlimit="8"
         fill="url(#fill34)"
         fill-rule="evenodd"
         id="path402"
         style="fill:url(#linearGradient715)"
         inkscape:export-filename="C:\Users\hlimadar\OneDrive - Indiana University\Melanoma project\ReportFigures\Scheme.png"
         inkscape:export-xdpi="90"
         inkscape:export-ydpi="90" />
      <path
         d="m 370.6328,286.5 1.16762,-0.33087 -0.2991,-1.29163 -1.16762,0.33087 z m 2.33525,-0.66174 1.16762,-0.33087 -0.2991,-1.29162 -1.16763,0.33087 z m 2.33525,-0.66174 1.16763,-0.33086 -0.29911,-1.29163 -1.16762,0.33087 z m 2.33525,-0.66173 1.16762,-0.33087 -0.29911,-1.29163 -1.16761,0.33087 z m 2.33528,-0.66174 1.1676,-0.33088 -0.29913,-1.29161 -1.1676,0.33087 z m 2.3352,-0.66173 1.1676,-0.33087 -0.29904,-1.29163 -1.16769,0.33087 z m 2.33529,-0.66174 1.1676,-0.33087 -0.29914,-1.29163 -1.16759,0.33087 z m 2.3352,-0.66174 1.16768,-0.33087 -0.29913,-1.29163 -1.1676,0.33087 z m 2.33528,-0.66175 1.1676,-0.33086 -0.29913,-1.29164 -1.1676,0.33087 z m 2.3352,-0.66173 1.16769,-0.33087 -0.29913,-1.29162 -1.1676,0.33087 z m 2.33529,-0.66173 1.1676,-0.33087 -0.29904,-1.29163 -1.16769,0.33087 z m 2.33529,-0.66174 1.1676,-0.33088 -0.29913,-1.29163 -1.1676,0.33088 z m 2.3352,-0.66174 1.1676,-0.33087 -0.29905,-1.29163 -1.16769,0.33086 z m 2.33528,-0.66174 1.1676,-0.33086 -0.29913,-1.29163 -1.1676,0.33087 z m 2.3352,-0.66173 1.16769,-0.33087 -0.29913,-1.29162 -1.1676,0.33086 z m 2.33529,-0.66175 1.1676,-0.33087 -0.29913,-1.29157 -1.1676,0.33079 z m 2.3352,-0.66173 1.16769,-0.33091 -0.29913,-1.2916 -1.1676,0.33089 z m 2.33529,-0.66171 1.1676,-0.3309 -0.29914,-1.2916 -1.16759,0.3308 z m 2.3352,-0.6618 1.16768,-0.3308 -0.29913,-1.2917 -1.1676,0.3309 z m 2.33528,-0.6617 1.1676,-0.3309 -0.29904,-1.2916 -1.16769,0.3309 z m 2.33529,-0.66171 1.1676,-0.33089 -0.29913,-1.29161 -1.1676,0.33081 z m 2.3352,-0.66179 1.1676,-0.3308 -0.29904,-1.2917 -1.16769,0.3309 z m 2.33529,-0.6617 1.1676,-0.3309 -0.29913,-1.2916 -1.1676,0.3309 z m 2.3352,-0.6618 1.1676,-0.3308 -0.29905,-1.2917 -1.1676,0.3309 z m 2.33528,-0.6617 1.1676,-0.3309 -0.29913,-1.2916 -1.1676,0.3309 z m 2.3352,-0.6617 1.16769,-0.3309 -0.29913,-1.2916 -1.1676,0.3308 z m 2.33529,-0.6618 1.1676,-0.3308 -0.29904,-1.2917 -1.16769,0.3309 z m 2.33529,-0.6617 1.11878,-0.3171 -0.29904,-1.2916 -1.11887,0.3171 z m 0.69897,3.2429 6.10847,-5.8601 -7.90308,-1.8897 z"
         id="path404"
         inkscape:export-filename="C:\Users\hlimadar\OneDrive - Indiana University\Melanoma project\ReportFigures\Scheme.png"
         inkscape:export-xdpi="90"
         inkscape:export-ydpi="90"
         style="stroke-width:0.950786" />
      <path
         d="m 157.09628,178.79814 0.25,-0.5 -0.21397,0.24801 0.625,-0.4375 -0.14068,0.0752 1.125,-0.4375 -0.0308,0.0111 1.5,-0.5 -0.064,0.0178 1.19315,-0.26942 -0.29368,-1.30059 -1.22559,0.27675 -1.54708,0.5157 -1.21514,0.47255 -0.82922,0.58046 -0.32557,0.65112 z m 8.11508,-2.58259 4.88894,-0.74397 -0.019,0.003 0.3852,-0.0473 -0.1625,-1.32339 -0.3948,0.0485 -4.89843,0.74541 z m 9.22534,-1.27623 2.7696,-0.34012 -0.0169,0.002 2.531,-0.24555 -0.1287,-1.3271 -2.5395,0.24637 -2.7781,0.34116 z m 9.265,-0.97006 1.8627,-0.18071 -0.008,6.9e-4 3.4493,-0.29501 -0.1136,-1.32848 -3.4531,0.29533 -1.8664,0.18107 z m 9.2899,-0.81589 2.0652,-0.17663 -0.01,7.5e-4 3.2524,-0.23094 -0.0944,-1.32998 -3.2572,0.23128 -2.07,0.17704 z m 9.298,-0.69013 3.3201,-0.23575 -0.0108,6.8e-4 2.0018,-0.10939 -0.0727,-1.33134 -2.0073,0.10968 -3.3256,0.23614 z m 9.3052,-0.56271 5.3253,-0.291 -0.0727,-1.33135 -5.3254,0.291 z m 9.3176,-0.4941 5.3265,-0.27038 -0.0676,-1.33162 -5.3265,0.27038 z m 9.3168,-0.46649 5.3283,-0.23166 -0.0579,-1.33208 -5.3283,0.23167 z m 9.3245,-0.40541 2.7253,-0.11849 -0.007,2.8e-4 2.6042,-0.084 -0.043,-1.33263 -2.6079,0.0841 -2.729,0.11865 z m 9.3199,-0.33118 5.3305,-0.17195 -0.043,-1.33264 -5.3305,0.17195 z m 9.3254,-0.28786 5.331,-0.14281 -0.035,-1.33288 -5.332,0.14283 z m 9.33,-0.24991 2.301,-0.0617 -0.006,1.4e-4 3.031,-0.0527 -0.024,-1.33316 -3.033,0.0528 -2.305,0.0617 z m 9.325,-0.18377 5.332,-0.0927 -0.023,-1.33317 -5.332,0.0928 z m 9.326,-0.14465 5.333,-0.0456 -0.011,-1.33328 -5.333,0.0456 z m 9.333,-0.0798 5.333,-0.0456 -0.011,-1.33331 -5.333,0.0456 z m 9.333,-0.0798 5.333,-0.0456 -0.011,-1.33324 -5.333,0.0455 z m 9.313,-0.0579 5.332,0.11345 0.029,-1.33302 -5.332,-0.1135 z m 9.331,0.19854 4.621,0.0983 -0.032,-0.001 0.711,0.0488 0.091,-1.33017 -0.726,-0.0499 -4.636,-0.0986 z m 9.29,0.41969 5.321,0.36538 0.091,-1.3302 -5.321,-0.36538 z m 9.312,0.63941 0.55,0.0378 -0.029,-0.003 4.751,0.53712 0.15,-1.32489 -4.766,-0.53877 -0.565,-0.0388 z m 9.247,1.02157 5.299,0.59909 0.15,-1.3249 -5.299,-0.59908 z m 9.231,1.18276 5.273,0.80036 0.2,-1.31824 -5.273,-0.80035 z m 9.227,1.40062 1.165,0.17686 -0.03,-0.005 4.075,0.8112 0.261,-1.30767 -4.09,-0.81419 -1.181,-0.17915 z m 9.133,1.76375 5.231,1.0413 0.26,-1.30768 -5.23,-1.04129 z m 9.09,1.97563 5.18,1.27007 0.317,-1.29497 -5.18,-1.27007 z m 9.065,2.22263 0.319,0.0782 -0.027,-0.007 4.808,1.39105 0.37,-1.2808 -4.82,-1.39487 -0.333,-0.0815 z m 8.942,2.57394 3.663,1.05969 -0.032,-0.01 1.438,0.495 0.434,-1.26072 -1.454,-0.50041 -3.678,-1.06432 z m 8.851,2.8467 5.043,1.73607 0.434,-1.26072 -5.043,-1.73607 z m 8.727,3.18129 4.928,2.041 0.51,-1.2319 -4.928,-2.04092 z m 8.57,3.5914 4.795,2.3345 0.584,-1.1988 -4.795,-2.3345 z m 8.392,4.0854 0.516,0.2514 -0.043,-0.0232 4.113,2.3941 0.67,-1.1524 -4.134,-2.4065 -0.539,-0.2622 z m 8.043,4.6345 0.805,0.4687 -0.051,-0.0327 3.588,2.5495 0.772,-1.0869 -3.613,-2.5671 -0.831,-0.4838 z m 7.603,5.3023 0.276,0.1961 -0.066,-0.0537 3.668,3.3894 0.905,-0.9793 -3.7,-3.4185 -0.311,-0.2209 z m 6.683,6.281 1.541,1.7499 -0.045,-0.0567 1.729,2.4534 1.09,-0.7679 -1.749,-2.483 -1.566,-1.7771 z m 4.972,7.4744 0.354,1.2704 1.285,-0.3578 -0.354,-1.2705 z m -3.202,0.6992 5.709,6.8856 2.083,-8.6983 z"
         id="path406"
         inkscape:export-filename="C:\Users\hlimadar\OneDrive - Indiana University\Melanoma project\ReportFigures\Scheme.png"
         inkscape:export-xdpi="90"
         inkscape:export-ydpi="90" />
      <text
         font-family="Calibri, Calibri_MSFontService, sans-serif"
         font-weight="400"
         font-size="12px"
         id="text408"
         inkscape:export-filename="C:\Users\hlimadar\OneDrive - Indiana University\Melanoma project\ReportFigures\Scheme.png"
         inkscape:export-xdpi="90"
         inkscape:export-ydpi="90"
         style="font-size:16px"
         x="269.92999"
         y="161"><tspan
           style="font-style:normal;font-variant:normal;font-weight:normal;font-stretch:normal;font-size:16px;font-family:Calibri, Calibri_MSFontService, sans-serif;-inkscape-font-specification:'Calibri, Calibri_MSFontService, sans-serif'"
           id="tspan13833">activation</tspan></text>
      <text
         font-family="Calibri, Calibri_MSFontService, sans-serif"
         font-weight="400"
         font-size="12px"
         transform="rotate(-94.706251)"
         id="text412"
         inkscape:export-filename="C:\Users\hlimadar\OneDrive - Indiana University\Melanoma project\ReportFigures\Scheme.png"
         inkscape:export-xdpi="90"
         inkscape:export-ydpi="90"
         style="font-size:14.6667px"
         x="-334.34058"
         y="100.10374">mechanically <tspan
   font-size="12px"
   x="-334.57053"
   y="115.08483"
   id="tspan410"
   style="font-size:14.6667px">stress</tspan></text>
      <text
         font-family="Calibri, Calibri_MSFontService, sans-serif"
         font-weight="400"
         font-size="12px"
         transform="rotate(-43.255269)"
         id="text414"
         inkscape:export-filename="C:\Users\hlimadar\OneDrive - Indiana University\Melanoma project\ReportFigures\Scheme.png"
         inkscape:export-xdpi="90"
         inkscape:export-ydpi="90"
         style="font-size:14.6667px"
         x="-109.73628"
         y="195.07736">death</text>
      <text
         font-family="Calibri, Calibri_MSFontService, sans-serif"
         font-weight="400"
         font-size="12px"
         transform="rotate(-16.296377)"
         id="text416"
         inkscape:export-filename="C:\Users\hlimadar\OneDrive - Indiana University\Melanoma project\ReportFigures\Scheme.png"
         inkscape:export-xdpi="90"
         inkscape:export-ydpi="90"
         x="274.49747"
         y="369.69858"
         style="font-size:14.6667px">recruitment</text>
      <path
         d="m 547.5,382.5 c 0,-16.016 12.76,-29 28.5,-29 15.74,0 28.5,12.984 28.5,29 0,16.016 -12.76,29 -28.5,29 -15.74,0 -28.5,-12.984 -28.5,-29 z"
         stroke="#000000"
         stroke-width="0.666667"
         stroke-miterlimit="8"
         fill="#ed7d31"
         fill-rule="evenodd"
         id="path418"
         inkscape:export-filename="C:\Users\hlimadar\OneDrive - Indiana University\Melanoma project\ReportFigures\Scheme.png"
         inkscape:export-xdpi="90"
         inkscape:export-ydpi="90" />
      <text
         fill="#ffffff"
         font-family="Calibri, Calibri_MSFontService, sans-serif"
         font-weight="400"
         font-size="11px"
         id="text426"
         inkscape:export-filename="C:\Users\hlimadar\OneDrive - Indiana University\Melanoma project\ReportFigures\Scheme.png"
         inkscape:export-xdpi="90"
         inkscape:export-ydpi="90"
         style="font-size:21.3333px"
         x="558.03125"
         y="389.23956"><tspan
           style="font-style:normal;font-variant:normal;font-weight:bold;font-stretch:normal;font-family:Calibri, Calibri_MSFontService, sans-serif;-inkscape-font-specification:'Calibri, Calibri_MSFontService, sans-serif Bold'"
           id="tspan28803">CD4</tspan></text>
      <path
         d="m 434.5,409 c 0,-15.74 12.984,-28.5 29,-28.5 16.016,0 29,12.76 29,28.5 0,15.74 -12.984,28.5 -29,28.5 -16.016,0 -29,-12.76 -29,-28.5 z"
         stroke="#000000"
         stroke-width="0.666667"
         stroke-miterlimit="8"
         fill="#ed7d31"
         fill-rule="evenodd"
         id="path428"
         inkscape:export-filename="C:\Users\hlimadar\OneDrive - Indiana University\Melanoma project\ReportFigures\Scheme.png"
         inkscape:export-xdpi="90"
         inkscape:export-ydpi="90" />
      <text
         fill="#ffffff"
         font-family="Calibri, Calibri_MSFontService, sans-serif"
         font-weight="400"
         font-size="11px"
         id="text436"
         inkscape:export-filename="C:\Users\hlimadar\OneDrive - Indiana University\Melanoma project\ReportFigures\Scheme.png"
         inkscape:export-xdpi="90"
         inkscape:export-ydpi="90"
         style="font-size:21.3333px"
         x="445.53128"
         y="415.73956"><tspan
           style="font-style:normal;font-variant:normal;font-weight:bold;font-stretch:normal;font-family:Calibri, Calibri_MSFontService, sans-serif;-inkscape-font-specification:'Calibri, Calibri_MSFontService, sans-serif Bold'"
           id="tspan18373">CD4</tspan></text>
      <path
         d="m 508.911,477.266 -1.331,-0.078 0.078,-1.331 1.331,0.078 z m -2.662,-0.156 -1.331,-0.079 0.078,-1.331 1.331,0.079 z m -2.71,-0.256 -1.32,-0.194 0.194,-1.319 1.32,0.194 z m -2.639,-0.388 -0.582,-0.086 -0.79,-0.203 0.333,-1.291 0.755,0.194 -0.069,-0.014 0.547,0.081 z m -2.663,-0.622 -1.291,-0.332 0.332,-1.292 1.292,0.333 z m -2.625,-0.726 -1.257,-0.445 0.445,-1.257 1.257,0.445 z m -2.514,-0.889 -1.098,-0.389 -0.226,-0.114 0.6,-1.191 0.189,0.096 -0.078,-0.034 1.058,0.375 z m -2.515,-1.103 -1.19,-0.6 0.6,-1.191 1.19,0.6 z m -2.381,-1.2 -1.191,-0.601 0.601,-1.19 1.19,0.6 z m -2.381,-1.201 -1.191,-0.6 0.6,-1.191 1.191,0.601 z m -2.395,-1.38 -1.081,-0.78 0.779,-1.082 1.082,0.78 z m -2.163,-1.56 -1.082,-0.779 0.78,-1.082 1.081,0.78 z m -2.163,-1.559 -1.082,-0.779 0.779,-1.082 1.082,0.78 z m -2.206,-1.679 -0.938,-0.948 0.948,-0.938 0.937,0.948 z m -1.876,-1.896 -0.938,-0.948 0.948,-0.938 0.938,0.948 z m -1.876,-1.896 -0.937,-0.948 0.948,-0.937 0.937,0.948 z m -1.926,-1.983 -0.786,-1.076 1.076,-0.787 0.787,1.077 z m -1.573,-2.153 -0.747,-1.022 -0.064,-0.104 1.138,-0.695 0.049,0.08 -0.031,-0.046 0.731,1.001 z m -1.506,-2.264 -0.696,-1.138 1.138,-0.695 0.695,1.138 z m -1.41,-2.34 -0.579,-1.201 1.201,-0.579 0.579,1.201 z m -1.158,-2.402 -0.494,-1.023 -0.086,-0.297 1.281,-0.371 0.07,0.243 -0.039,-0.104 0.469,0.973 z m -0.951,-2.601 -0.371,-1.28 1.28,-0.372 0.371,1.281 z m -0.743,-2.561 -0.058,-0.199 1.281,-0.372 0.058,0.2 z m -3.17,1.537 2.745,-8.512 5.163,7.303 z"
         id="path438"
         inkscape:export-filename="C:\Users\hlimadar\OneDrive - Indiana University\Melanoma project\ReportFigures\Scheme.png"
         inkscape:export-xdpi="90"
         inkscape:export-ydpi="90" />
      <path
         d="m 290.834,451.376 0.125,-5.332 1.333,0.032 -0.125,5.332 z m 0.219,-9.331 0.093,-3.994 0.086,-1.361 1.331,0.083 -0.085,1.348 10e-4,-0.026 -0.093,3.982 z m 0.43,-9.347 0.334,-5.323 1.331,0.083 -0.335,5.323 z m 0.656,-9.337 0.55,-5.304 1.326,0.137 -0.549,5.305 z m 0.962,-9.283 0.112,-1.077 0.564,-4.233 1.322,0.176 -0.563,4.223 0.002,-0.019 -0.11,1.067 z m 1.292,-9.284 0.451,-2.709 0.505,-2.557 1.308,0.258 -0.503,2.547 0.004,-0.019 -0.45,2.7 z m 1.786,-9.199 0.611,-2.674 0.662,-2.526 1.29,0.338 -0.66,2.516 0.005,-0.021 -0.608,2.664 z m 2.498,-9.059 0.264,-0.763 1.154,-2.628 0.941,-1.535 1.137,0.697 -0.917,1.496 0.042,-0.081 -1.125,2.563 0.02,-0.05 -0.256,0.737 z m 5.847,-7.455 0.683,-0.252 -0.241,0.154 1.188,-1.188 -0.092,0.115 1.187,-1.875 -0.049,0.094 0.278,-0.649 1.226,0.525 -0.3,0.699 -1.255,1.982 -1.344,1.343 -0.82,0.303 z m 4.389,-7.281 0.52,-1.501 -0.015,0.049 0.95,-3.622 1.289,0.338 -0.956,3.647 -0.528,1.525 z m 2.359,-8.951 0.141,-0.608 -0.005,0.023 0.901,-4.622 1.308,0.255 -0.902,4.634 -0.144,0.619 z m 1.696,-9.134 0.249,-1.495 -0.003,0.02 0.51,-3.783 1.322,0.178 -0.512,3.794 -0.251,1.505 z m 1.221,-9.21 0.55,-5.304 1.326,0.137 -0.55,5.305 z m 0.962,-9.283 0.061,-0.586 -0.002,0.027 0.297,-4.735 1.331,0.083 -0.298,4.749 -0.063,0.599 z m 0.607,-9.286 0.264,-4.211 -10e-4,0.026 0.026,-1.114 1.333,0.031 -0.026,1.128 -0.265,4.223 z m 0.383,-9.298 0.036,-1.534 1.333,0.031 -0.036,1.535 z m -3.328,-0.28 4.187,-7.904 3.811,8.092 z"
         id="path440"
         inkscape:export-filename="C:\Users\hlimadar\OneDrive - Indiana University\Melanoma project\ReportFigures\Scheme.png"
         inkscape:export-xdpi="90"
         inkscape:export-ydpi="90" />
      <path
         d="m 443.85721,388.59013 -0.51613,-3.03229 -1.07679,-2.2004 -1.19763,0.58607 1.03453,2.11403 -0.0584,-0.18117 0.5,2.9375 z m -4.01478,-8.57988 -0.46971,-0.58096 -3.19747,-2.87769 -0.39603,-0.2703 -0.75166,1.1012 0.35911,0.2451 -0.0701,-0.0551 3.125,2.81253 -0.0724,-0.0764 0.43651,0.5399 z m -7.36703,-5.98395 -0.2989,-0.2041 -4.3891,-2.4578 -0.6514,1.1633 4.3633,2.4435 -0.0501,-0.0311 0.2746,0.1875 z m -8.3272,-4.4237 -1.9939,-0.9494 -2.9443,-1.1715 -0.4929,1.2389 2.924,1.1633 -0.0402,-0.0175 1.974,0.94 z m -8.7079,-3.5649 -5.0597,-1.6866 -0.4216,1.265 5.0596,1.6865 z m -8.929,-2.8107 -3.4563,-0.983 -1.7241,-0.4048 -0.3048,1.2981 1.709,0.4012 -0.03,-0.008 3.4414,0.9788 z m -9.0745,-2.302 -1.5978,-0.3752 -3.6531,-0.7001 -0.251,1.3095 3.6396,0.6975 -0.0269,-0.006 1.5844,0.372 z m -9.2213,-1.8306 -5.2905,-0.6745 -0.1686,1.3227 5.2905,0.6744 z m -9.2584,-1.1803 -5.2905,-0.6745 -0.1686,1.3226 5.2905,0.6745 z m -9.3352,-0.9396 -5.3285,-0.2263 -0.0566,1.3321 5.3285,0.2263 z m -9.3249,-0.3961 -3.9437,-0.1675 -1.3849,-0.0588 -0.0565,1.3322 1.3848,0.0588 3.9437,0.1675 z m -9.325,-0.396 -5.3285,-0.2263 -0.0566,1.3321 5.3286,0.2263 z m -9.325,-0.3961 -1.481,-0.0629 0.056,0.005 -3.82,-0.487 -0.169,1.3226 3.848,0.4906 1.51,0.0641 z m -9.213,-1.051 -5.29,-0.6744 -0.169,1.3226 5.291,0.6745 z m -9.204,-1.2583 -5.238,-1.004 -0.251,1.3095 5.238,1.0039 z m -9.113,-1.8749 -4.202,-0.9866 0.03,0.008 -0.978,-0.2782 -0.365,1.2825 0.993,0.2824 4.217,0.9902 z m -8.998,-2.3512 -1.987,-0.5651 0.029,0.009 -3.1,-1.0332 -0.422,1.2649 3.114,1.038 2.002,0.5692 z m -8.806,-2.8708 -4.956,-1.9715 -0.493,1.2389 4.956,1.9715 z m -8.537,-3.6511 -1.977,-0.9414 0.039,0.0202 -2.743,-1.536 -0.651,1.1633 2.762,1.5468 1.997,0.9509 z m -8.038,-4.5137 -2.475,-1.6889 0.07,0.0551 -1.737,-1.5637 -0.892,0.9911 1.771,1.5935 2.511,1.7142 z m -6.554,-6.1095 -0.556,-0.878 -1.127,0.7136 0.557,0.878 z m 3.083,-0.8634 -6.817,-5.7904 -0.542,8.9278 z"
         id="path442"
         inkscape:export-filename="C:\Users\hlimadar\OneDrive - Indiana University\Melanoma project\ReportFigures\Scheme.png"
         inkscape:export-xdpi="90"
         inkscape:export-ydpi="90" />
      <text
         font-family="Calibri, Calibri_MSFontService, sans-serif"
         font-weight="400"
         font-size="12px"
         id="text446"
         inkscape:export-filename="C:\Users\hlimadar\OneDrive - Indiana University\Melanoma project\ReportFigures\Scheme.png"
         inkscape:export-xdpi="90"
         inkscape:export-ydpi="90"
         style="font-size:14.6667px"
         x="224.11301"
         y="413">Inhibit TNF <tspan
   font-size="12px"
   x="224.11301"
   y="428"
   id="tspan444"
   style="font-size:14.6667px">production</tspan></text>
      <text
         font-family="Calibri, Calibri_MSFontService, sans-serif"
         font-weight="400"
         font-size="12px"
         transform="rotate(6.4193774)"
         id="text450"
         inkscape:export-filename="C:\Users\hlimadar\OneDrive - Indiana University\Melanoma project\ReportFigures\Scheme.png"
         inkscape:export-xdpi="90"
         inkscape:export-ydpi="90"
         style="font-size:14.6667px"
         x="354.82071"
         y="334.4256">Enhancement of <tspan
   font-size="12px"
   x="354.83124"
   y="349.5191"
   id="tspan448"
   style="font-size:14.6667px">killing</tspan></text>
      <path
         d="m 449.179,279.519 -0.153,5.331 -1.332,-0.038 0.152,-5.331 z m -0.267,9.33 -0.109,3.816 -0.141,1.55 -1.328,-0.12 0.139,-1.53 -0.002,0.041 0.108,-3.795 z m -0.612,9.35 -0.483,5.311 -1.328,-0.12 0.483,-5.312 z m -0.936,9.318 -0.747,5.281 -1.32,-0.187 0.747,-5.281 z m -1.307,9.241 -0.262,1.854 -0.683,3.431 -1.308,-0.26 0.679,-3.413 -0.006,0.037 0.26,-1.835 z m -1.726,9.208 -1.044,5.245 -0.005,0.023 -1.291,-0.334 0.001,-0.005 -0.009,0.037 1.041,-5.226 z m -2.053,9.14 -1.337,5.163 -1.291,-0.334 1.338,-5.163 z m -2.395,9.057 -1.613,5.083 -1.271,-0.403 1.613,-5.084 z m -2.822,8.896 -0.606,1.91 -1.188,3.149 -1.247,-0.471 1.181,-3.132 -0.012,0.033 0.601,-1.892 z m -3.205,8.801 -1.54,4.082 -0.414,0.923 -1.216,-0.545 0.406,-0.905 -0.016,0.037 1.532,-4.062 z m -3.591,8.655 -2.182,4.866 -1.217,-0.545 2.183,-4.867 z m -4.016,8.468 -2.497,4.713 -1.178,-0.624 2.497,-4.713 z m -4.506,8.227 -2.851,4.508 -1.127,-0.713 2.851,-4.507 z m -5.087,7.889 -3.223,4.25 -1.063,-0.806 3.223,-4.249 z m -5.751,7.432 -3.633,3.904 -0.976,-0.908 3.633,-3.904 z m -6.554,6.746 -4.09,3.423 -0.856,-1.023 4.09,-3.422 z m -7.502,5.684 -3.846,2.322 -0.865,0.363 -0.516,-1.229 0.82,-0.344 -0.087,0.044 3.805,-2.298 z m -8.505,4.124 -1.793,0.563 -3.331,0.64 -0.226,0.013 -0.078,-1.331 0.182,-0.01 -0.087,0.01 3.25,-0.625 -0.073,0.019 1.757,-0.551 z m -9.357,1.432 -5.329,0.207 -0.052,-1.332 5.329,-0.207 z m -9.271,0.591 -2.45,0.243 0.044,-0.006 -2.83,0.476 -0.222,-1.314 2.854,-0.481 2.473,-0.245 z m -9.124,1.402 -5.177,1.281 -0.321,-1.294 5.178,-1.281 z m -8.931,2.497 -5.06,1.687 -0.421,-1.265 5.059,-1.687 z m -8.762,2.99 -4.734,2.171 0.029,-0.014 -0.111,0.058 -0.614,-1.184 0.126,-0.065 4.748,-2.178 z m -8.367,4.056 -1.4,0.726 0.054,-0.031 -3.158,2.033 -0.722,-1.121 3.184,-2.05 1.428,-0.74 z m -7.756,4.985 -2.308,1.688 0.057,-0.046 -1.827,1.669 -0.9,-0.984 1.854,-1.694 2.336,-1.709 z m -6.885,6.068 -2.073,2.28 0.049,-0.061 -1.309,1.833 -1.085,-0.775 1.332,-1.865 2.099,-2.309 z m -5.209,7.388 -1.162,2.759 -1.229,-0.517 1.162,-2.759 z m 2.418,2.073 -5.65,6.933 -2.156,-8.68 z"
         id="path452"
         inkscape:export-filename="C:\Users\hlimadar\OneDrive - Indiana University\Melanoma project\ReportFigures\Scheme.png"
         inkscape:export-xdpi="90"
         inkscape:export-ydpi="90" />
      <text
         font-family="Calibri, Calibri_MSFontService, sans-serif"
         font-weight="400"
         font-size="12px"
         transform="rotate(-16.728802)"
         id="text458"
         inkscape:export-filename="C:\Users\hlimadar\OneDrive - Indiana University\Melanoma project\ReportFigures\Scheme.png"
         inkscape:export-xdpi="90"
         inkscape:export-ydpi="90"
         style="font-size:14.6667px"
         x="189.78703"
         y="524.84088">Increase <tspan
   font-size="12px"
   x="189.60429"
   y="540.44891"
   id="tspan454"
   style="font-size:14.6667px">proliferation and</tspan><tspan
   font-size="12px"
   x="189.72157"
   y="554.05859"
   id="tspan456"
   style="font-size:14.6667px">killing rate</tspan></text>
      <text
         font-family="Calibri, Calibri_MSFontService, sans-serif"
         font-weight="400"
         font-size="12px"
         id="text39451"
         inkscape:export-filename="C:\Users\hlimadar\OneDrive - Indiana University\Melanoma project\ReportFigures\Scheme.png"
         inkscape:export-xdpi="90"
         inkscape:export-ydpi="90"
         style="font-size:13.3333px"
         x="340.81384"
         y="327.96176">TNF</text>
      <text
         font-family="Calibri, Calibri_MSFontService, sans-serif"
         font-weight="400"
         font-size="12px"
         id="text48199"
         inkscape:export-filename="C:\Users\hlimadar\OneDrive - Indiana University\Melanoma project\ReportFigures\Scheme.png"
         inkscape:export-xdpi="90"
         inkscape:export-ydpi="90"
         style="font-size:13.3333px"
         x="76.954636"
         y="153.54636">debris</text>
      <text
         font-family="Calibri, Calibri_MSFontService, sans-serif"
         font-weight="400"
         font-size="12px"
         transform="rotate(0.62102407)"
         id="text355"
         inkscape:export-filename="C:\Users\hlimadar\OneDrive - Indiana University\Melanoma project\ReportFigures\Scheme.png"
         inkscape:export-xdpi="90"
         inkscape:export-ydpi="90"
         x="285.21948"
         y="250.72871"
         style="font-size:14.6667px">recruitment</text>
    </g>
    <rect
       style="fill:none;stroke:#b3b3b3;stroke-width:0.8;stroke-linejoin:round;stroke-miterlimit:11.3;stroke-dasharray:none"
       id="rect1933"
       width="244.33534"
       height="107.47889"
       x="-2.5130317"
       y="8.4274349" />
  </g>
</svg>
